<?xml version="1.0" standalone="no"?>
<!DOCTYPE svg PUBLIC "-//W3C//DTD SVG 20010904//EN"
 "http://www.w3.org/TR/2001/REC-SVG-20010904/DTD/svg10.dtd">
<svg version="1.0" xmlns="http://www.w3.org/2000/svg"
 width="192.000000pt" height="192.000000pt" viewBox="0 0 192.000000 192.000000"
 preserveAspectRatio="xMidYMid meet">
<metadata>
Created by potrace 1.11, written by Peter Selinger 2001-2013
</metadata>
<g transform="translate(0.000000,192.000000) scale(0.100000,-0.100000)"
fill="#000000" stroke="none">
<path d="M378 1885 c-2 -1 -48 -5 -103 -8 -109 -6 -231 -32 -255 -53 -11 -11
-11 -14 -1 -14 29 0 129 -107 195 -210 44 -67 135 -154 192 -182 86 -43 203
-31 237 24 7 10 17 18 23 18 18 0 100 -87 118 -124 25 -53 40 -90 41 -106 1
-8 5 -24 8 -35 17 -54 20 -138 22 -620 1 -286 3 -525 3 -532 5 -31 146 -44
187 -16 19 13 20 25 21 328 l1 316 48 70 c57 83 167 199 190 199 9 0 26 -7 38
-15 27 -17 99 -21 143 -7 86 27 167 103 244 230 58 94 112 158 141 167 65 21
-35 67 -171 79 -150 14 -240 7 -324 -24 -90 -34 -142 -95 -152 -180 -3 -24
-14 -43 -36 -60 -17 -14 -50 -42 -72 -62 -23 -20 -42 -35 -43 -34 -2 1 -5 26
-8 54 -9 93 -14 129 -24 156 -6 14 -9 26 -6 26 8 0 -35 113 -67 172 -39 74
-134 172 -205 213 -35 20 -56 40 -63 59 -26 74 -111 138 -200 151 -25 3 -62
10 -82 15 -20 4 -38 6 -40 5z"/>
</g>
</svg>
